<?xml version="1.0" standalone="no"?>
<!DOCTYPE svg PUBLIC "-//W3C//DTD SVG 20010904//EN"
 "http://www.w3.org/TR/2001/REC-SVG-20010904/DTD/svg10.dtd">
<svg version="1.0" xmlns="http://www.w3.org/2000/svg"
 width="360.000000pt" height="360.000000pt" viewBox="0 0 360.000000 360.000000"
 preserveAspectRatio="xMidYMid meet">
<metadata>
Created by potrace 1.11, written by Peter Selinger 2001-2013
</metadata>
<g transform="translate(0.000000,360.000000) scale(0.100000,-0.100000)"
fill="#000000" stroke="none">
<path d="M0 1800 l0 -1800 1800 0 1800 0 0 1800 0 1800 -1800 0 -1800 0 0
-1800z m1730 480 c0 -105 -3 -140 -12 -140 -7 0 -282 0 -610 0 l-598 -1 0
-364 0 -365 605 0 c675 0 629 5 606 -70 -21 -70 -71 -133 -130 -162 l-55 -28
-601 0 -601 0 -55 27 c-64 33 -112 97 -128 173 -7 32 -11 201 -11 450 0 378 1
402 21 454 23 62 95 135 151 153 22 7 266 11 726 12 l692 1 0 -140z m1738 0
l-3 -140 -607 -1 -608 -1 0 -364 0 -364 608 -2 607 -3 3 -24 c5 -34 -53 -146
-94 -179 -19 -16 -52 -34 -73 -41 -27 -8 -216 -11 -633 -11 l-594 0 -55 28
c-64 32 -112 96 -128 172 -7 32 -11 199 -11 444 0 462 1 468 84 551 34 34 65
56 91 62 26 7 284 11 728 12 l688 1 -3 -140z"/>
</g>
</svg>
